<svg width="91" height="87" viewBox="0 0 91 87" fill="none" xmlns="http://www.w3.org/2000/svg">
<path d="M83.7281 26.8867V65.9307C83.7281 70.0798 80.3482 73.4598 76.2223 73.4598H14.8942C10.745 73.4598 7.3651 70.0798 7.3651 65.9307V26.8867H83.7281Z" fill="white"/>
<path d="M5.17401 24.6955V65.9306C5.17401 71.2919 9.53294 75.6508 14.8942 75.6508H76.2224C81.5836 75.6508 85.9426 71.2919 85.9426 65.9306V24.6955H5.19731H5.17401ZM83.7281 65.9306C83.7281 70.0798 80.3482 73.4597 76.2224 73.4597H14.8942C10.7451 73.4597 7.36512 70.0798 7.36512 65.9306V26.8867H83.7281V65.9306Z" fill="#133960"/>
<path d="M21.7473 42.1079H35.5467C37.4115 42.1079 38.9033 43.6231 38.9033 45.4646V74.5319H18.3907V45.4646C18.3907 43.5998 19.9058 42.1079 21.7473 42.1079Z" fill="#FFA400"/>
<path d="M39.9989 75.6508H17.2951V45.4879C17.2951 43.0404 19.2997 41.0357 21.7473 41.0357H35.5467C37.9942 41.0357 39.9989 43.0404 39.9989 45.4879V75.6508ZM19.4862 73.4597H37.8078V45.4879C37.8078 44.2292 36.7821 43.2269 35.5467 43.2269H21.7473C20.4885 43.2269 19.4862 44.2525 19.4862 45.4879V73.4597Z" fill="#133960"/>
<g style="mix-blend-mode:multiply">
<path d="M84.8237 46.024V31.4321H6.26956V46.0706C7.62153 46.7233 9.11337 47.0963 10.6518 47.0963C14.4047 47.0963 17.6681 45.045 19.3464 41.9448C19.7193 42.6208 20.1622 43.2735 20.6983 43.8562C22.5631 45.9075 25.2438 47.0963 28.0176 47.0963H28.1342C31.8638 47.0963 35.1038 45.0683 36.7821 42.0147C37.2017 42.7606 37.7145 43.4366 38.3206 44.066C40.2087 46.0007 42.7261 47.073 45.4301 47.073H45.5699C48.2739 47.073 50.7913 46.0007 52.6794 44.066C53.2855 43.4366 53.7983 42.7373 54.2179 42.0147C55.8962 45.045 59.1363 47.0963 62.8658 47.0963H62.9824C65.7562 47.0963 68.4369 45.9075 70.3017 43.8562C70.8378 43.2735 71.2807 42.6208 71.6536 41.9448C73.3319 45.045 76.5953 47.0963 80.3482 47.0963C81.9333 47.0963 83.4484 46.7233 84.8237 46.024Z" fill="#D9E9F3"/>
</g>
<path d="M69.346 42.108H51.5606C49.7068 42.108 48.204 43.6108 48.204 45.4646V55.954C48.204 57.8079 49.7068 59.3107 51.5606 59.3107H69.346C71.1998 59.3107 72.7026 57.8079 72.7026 55.954V45.4646C72.7026 43.6108 71.1998 42.108 69.346 42.108Z" fill="#41B3E7"/>
<path d="M69.346 60.4062H51.5606C49.113 60.4062 47.1084 58.4016 47.1084 55.954V45.4646C47.1084 43.0171 49.113 41.0124 51.5606 41.0124H69.346C71.7935 41.0124 73.7981 43.0171 73.7981 45.4646V55.954C73.7981 58.4016 71.7935 60.4062 69.346 60.4062ZM51.5606 43.2036C50.3018 43.2036 49.2995 44.2292 49.2995 45.4646V55.954C49.2995 57.2128 50.3251 58.2151 51.5606 58.2151H69.346C70.6047 58.2151 71.607 57.1895 71.607 55.954V45.4646C71.607 44.2059 70.5814 43.2036 69.346 43.2036H51.5606Z" fill="#133960"/>
<path d="M80.6512 41.5486C86.0358 41.5486 90.115 36.7467 89.2525 31.4321L84.9635 9.26444C84.2409 4.83557 80.4181 1.5722 75.9426 1.5722H68.4369L71.9799 33.6698C72.4228 38.1453 76.1757 41.5486 80.6745 41.5486H80.6512Z" fill="#D81A60"/>
<path d="M63.029 41.5486H63.1455C68.297 41.5486 72.3296 37.1197 71.8401 31.9915L68.4602 1.5722H53.1689L54.3344 33.1104C54.4976 37.819 58.3437 41.5486 63.0523 41.5486H63.029Z" fill="#D9E9F3"/>
<path d="M45.4301 41.5486H45.5699C50.4883 41.5486 54.451 37.4693 54.2878 32.551L53.1456 1.5722H37.8544L36.7122 32.551C36.549 37.4693 40.5117 41.5486 45.4301 41.5486Z" fill="#D81A60"/>
<path d="M27.8544 41.5486H27.971C32.6796 41.5486 36.549 37.819 36.6889 33.1104L37.8544 1.5722H22.5631L19.1832 31.9915C18.6937 37.1197 22.7263 41.5486 27.8778 41.5486H27.8544Z" fill="#D9E9F3"/>
<path d="M10.3255 41.5486C14.8243 41.5486 18.5771 38.1453 19.02 33.6698L22.5631 1.5722H15.0574C10.5819 1.5722 6.73574 4.83557 6.03644 9.26444L1.74744 31.4321C0.884977 36.7467 4.9875 41.5486 10.3488 41.5486H10.3255Z" fill="#D81A60"/>
<path d="M71.3039 27.8657C70.7445 27.8657 70.2783 27.4461 70.2084 26.8867L69.6489 21.0592C69.579 20.4532 70.0219 19.917 70.6279 19.8704C71.234 19.8005 71.7701 20.2434 71.8168 20.8494L72.3762 26.6769C72.4461 27.2829 72.0032 27.8191 71.3972 27.8657C71.3506 27.8657 71.3272 27.8657 71.2806 27.8657H71.3039Z" fill="#133960"/>
<path d="M80.6745 42.6441C75.593 42.6441 71.3972 38.8213 70.9077 33.7631L70.7445 32.1081C70.7445 32.1081 70.7445 32.0848 70.7445 32.0614L70.6979 31.5253C70.628 30.9193 71.0709 30.3831 71.6769 30.3365C72.283 30.2899 72.8191 30.7095 72.8657 31.3155L72.9123 31.875V31.8983L73.0755 33.53C73.4485 37.4693 76.7119 40.4297 80.6745 40.4297C82.9123 40.4297 85.0335 39.4507 86.4787 37.749C87.9239 36.0474 88.5532 33.8097 88.2036 31.5952L83.9146 9.4509C83.9146 9.4509 83.9146 9.45092 83.9146 9.42761C83.2852 5.51156 79.9286 2.66775 75.9659 2.66775H68.4602C67.8541 2.66775 67.3646 2.17824 67.3646 1.57219C67.3646 0.966133 67.8541 0.476624 68.4602 0.476624H75.9659C81.0009 0.476624 85.2666 4.08965 86.0824 9.05464L90.3714 31.199C90.3714 31.199 90.3714 31.199 90.3714 31.2223C90.8376 34.0661 90.0218 36.9565 88.157 39.1476C86.2922 41.3388 83.5649 42.5975 80.6745 42.5975V42.6441Z" fill="#133960"/>
<path d="M63.1222 42.6441H63.0057C57.6677 42.6441 53.3554 38.4717 53.1923 33.1337L52.8659 23.2737C52.8659 22.6676 53.3321 22.1548 53.9149 22.1548C54.5209 22.1315 55.0337 22.621 55.0337 23.2037L55.3601 33.0638C55.4999 37.2129 58.8332 40.453 62.9824 40.453H63.0989C65.2667 40.453 67.2714 39.5672 68.7399 37.9589C70.1851 36.3738 70.9077 34.2526 70.6979 32.1081C70.6979 32.1081 70.6979 32.0848 70.6979 32.0615L70.6513 31.5253C70.5814 30.9193 71.0243 30.3831 71.6303 30.3365C72.2364 30.2899 72.7725 30.7095 72.8191 31.3156L72.8657 31.875C72.8657 31.875 72.8657 31.8983 72.8657 31.9216C73.1221 34.6488 72.1898 37.3994 70.3483 39.4274C68.4835 41.4553 65.8495 42.6208 63.0989 42.6208L63.1222 42.6441Z" fill="#133960"/>
<path d="M68.4369 0.476624H53.1456V2.66775H68.4369V0.476624Z" fill="#133960"/>
<path d="M37.225 17.6094C37.225 17.6094 37.2017 17.6094 37.1784 17.6094C36.5723 17.6094 36.1061 17.0732 36.1295 16.4905L36.3159 10.8029C36.3159 10.1968 36.8521 9.73064 37.4348 9.75395C38.0409 9.75395 38.507 10.2901 38.4837 10.8728L38.2973 16.5604C38.2973 17.1432 37.7844 17.6094 37.2017 17.6094H37.225Z" fill="#133960"/>
<path d="M53.1456 0.476624H37.8544V2.66775H53.1456V0.476624Z" fill="#133960"/>
<path d="M45.5699 42.6441H45.4301C42.7494 42.6441 40.232 41.5719 38.3672 39.6604C36.5024 37.7257 35.5234 35.185 35.6166 32.5043L35.9896 20.896C35.9896 20.29 36.5024 19.8238 37.1085 19.8471C37.7145 19.8471 38.1807 20.3832 38.1574 20.966L37.7844 32.5743C37.7145 34.6488 38.4837 36.6302 39.9289 38.122C41.3742 39.6138 43.3322 40.453 45.4068 40.453H45.5466C47.6212 40.453 49.5792 39.6371 51.0244 38.122C52.4696 36.6302 53.2389 34.6488 53.1689 32.5743L52.8659 23.2736C52.8659 22.6676 53.3321 22.1548 53.9148 22.1548C54.5209 22.1315 55.0337 22.621 55.0337 23.2037L55.3367 32.5043C55.43 35.185 54.451 37.7257 52.5862 39.6604C50.7214 41.5952 48.2039 42.6441 45.5233 42.6441H45.5699Z" fill="#133960"/>
<path d="M20.3021 21.502C20.3021 21.502 20.2322 21.502 20.1855 21.502C19.5795 21.4321 19.1366 20.9193 19.2065 20.3132L19.7193 15.0918C19.7893 14.4857 20.3021 14.0429 20.9081 14.1128C21.5142 14.1827 21.9571 14.6955 21.8872 15.3016L21.3743 20.523C21.3277 21.0824 20.8382 21.502 20.2788 21.502H20.3021Z" fill="#133960"/>
<path d="M27.971 42.6442H27.8545C25.1039 42.6442 22.4466 41.4787 20.6051 39.4507C18.7403 37.4227 17.8312 34.6722 18.0876 31.9449L18.9501 23.1571C18.9967 22.5511 19.5329 22.1082 20.1389 22.1781C20.745 22.248 21.1879 22.7609 21.1179 23.3669L20.2555 32.1547C20.069 34.2759 20.7683 36.3971 22.2135 37.9822C23.682 39.5906 25.6867 40.4763 27.8545 40.4763H27.971C32.1202 40.4763 35.4535 37.2363 35.5933 33.0871L35.9896 20.9194C35.9896 20.3133 36.5024 19.8471 37.1085 19.8704C37.7145 19.8704 38.1807 20.4066 38.1574 20.9893L37.7611 33.157C37.598 38.495 33.2857 42.6674 27.9477 42.6674L27.971 42.6442Z" fill="#133960"/>
<path d="M37.8311 0.476624H22.5398V2.66775H37.8311V0.476624Z" fill="#133960"/>
<path d="M10.3255 42.6441C7.43506 42.6441 4.70781 41.3854 2.84302 39.1942C0.978239 37.0031 0.162384 34.1127 0.628581 31.2689C0.628581 31.2689 0.628581 31.2689 0.628581 31.2456L4.9176 9.10123C5.73344 4.11293 9.97582 0.523224 15.0341 0.523224H22.5398C23.1459 0.523224 23.6354 1.01273 23.6354 1.61879C23.6354 2.22484 23.1459 2.71434 22.5398 2.71434H15.0341C11.0714 2.71434 7.71478 5.55815 7.08541 9.4742C7.08541 9.4742 7.08541 9.47421 7.08541 9.49751L2.7964 31.6419C2.44675 33.8563 3.07611 36.094 4.52132 37.7956C5.96653 39.4973 8.08773 40.4763 10.3255 40.4763C14.2648 40.4763 17.5282 37.5159 17.9245 33.5766L18.9268 23.1571C18.9734 22.551 19.5095 22.1081 20.1156 22.1781C20.7217 22.248 21.1645 22.7608 21.0946 23.3669L20.0923 33.7864C19.6028 38.8446 15.407 42.6674 10.3255 42.6674V42.6441Z" fill="#133960"/>
<path d="M80.8843 32.5277H1.72414C1.11808 32.5277 0.628571 32.0382 0.628571 31.4321C0.628571 30.8261 1.11808 30.3365 1.72414 30.3365H80.8843C81.4904 30.3365 81.9799 30.8261 81.9799 31.4321C81.9799 32.0382 81.4904 32.5277 80.8843 32.5277Z" fill="#133960"/>
<path d="M61.5605 42.1079H59.3694V59.3106H61.5605V42.1079Z" fill="#133960"/>
<path d="M72.7026 49.6138H48.204V51.8049H72.7026V49.6138Z" fill="#133960"/>
<g opacity="0.6">
<path d="M69.5091 45.6278C69.3226 45.6278 69.1362 45.5579 68.973 45.418C68.8098 45.2782 68.6 45.1849 68.3669 45.1849H63.3087C62.8658 45.1849 62.5162 44.8353 62.5162 44.3924C62.5162 43.9495 62.8658 43.5999 63.3087 43.5999H68.3669C68.973 43.5999 69.5791 43.8329 70.0219 44.2525C70.3483 44.5556 70.3716 45.0451 70.0686 45.3481C69.9054 45.5113 69.6956 45.6045 69.4858 45.6045L69.5091 45.6278Z" fill="white"/>
</g>
<g opacity="0.6">
<path d="M70.0452 48.8446C69.6023 48.8446 69.2527 48.4949 69.2527 48.052V47.1662C69.2527 46.7234 69.6023 46.3737 70.0452 46.3737C70.4881 46.3737 70.8378 46.7234 70.8378 47.1662V48.052C70.8378 48.4949 70.4881 48.8446 70.0452 48.8446Z" fill="white"/>
</g>
<g opacity="0.6">
<path d="M35.3369 46.4902C35.1504 46.4902 34.964 46.4203 34.8008 46.2804C34.6376 46.1406 34.4278 46.0473 34.1948 46.0473H29.1365C28.6936 46.0473 28.344 45.6977 28.344 45.2548C28.344 44.8119 28.6936 44.4623 29.1365 44.4623H34.1948C34.8008 44.4623 35.4069 44.6954 35.8497 45.115C36.1761 45.418 36.1994 45.9075 35.8964 46.2105C35.7332 46.3737 35.5234 46.4669 35.3136 46.4669L35.3369 46.4902Z" fill="white"/>
</g>
<g opacity="0.6">
<path d="M35.8964 49.707C35.4535 49.707 35.1038 49.3573 35.1038 48.9145V48.0287C35.1038 47.5858 35.4535 47.2361 35.8964 47.2361C36.3393 47.2361 36.6889 47.5858 36.6889 48.0287V48.9145C36.6889 49.3573 36.3393 49.707 35.8964 49.707Z" fill="white"/>
</g>
<g opacity="0.6">
<path d="M21.9804 8.3087H15.9664C15.5235 8.3087 15.1739 7.95905 15.1739 7.51616C15.1739 7.07327 15.5235 6.72363 15.9664 6.72363H21.9804C22.4233 6.72363 22.7729 7.07327 22.7729 7.51616C22.7729 7.95905 22.4233 8.3087 21.9804 8.3087Z" fill="white"/>
</g>
<g opacity="0.6">
<path d="M75.8494 8.3087H29.2531C28.8102 8.3087 28.4605 7.95905 28.4605 7.51616C28.4605 7.07327 28.8102 6.72363 29.2531 6.72363H75.8494C76.2923 6.72363 76.6419 7.07327 76.6419 7.51616C76.6419 7.95905 76.2923 8.3087 75.8494 8.3087Z" fill="white"/>
</g>
<path d="M88.9961 32.5277H85.3831C84.7771 32.5277 84.2875 32.0382 84.2875 31.4321C84.2875 30.8261 84.7771 30.3365 85.3831 30.3365H88.9961C89.6022 30.3365 90.0917 30.8261 90.0917 31.4321C90.0917 32.0382 89.6022 32.5277 88.9961 32.5277Z" fill="#133960"/>
<path d="M36.6656 59.4738C36.6656 59.0361 36.316 58.6813 35.8847 58.6813C35.4534 58.6813 35.1038 59.0361 35.1038 59.4738V60.919C35.1038 61.3567 35.4534 61.7115 35.8847 61.7115C36.316 61.7115 36.6656 61.3567 36.6656 60.919V59.4738Z" fill="#133960"/>
<g style="mix-blend-mode:multiply">
<path d="M76.2224 68.3782H14.8942C10.139 68.3782 6.26956 64.5321 6.26956 59.7535V65.9306C6.26956 70.6859 10.1157 74.5553 14.8942 74.5553H76.2224C80.9776 74.5553 84.847 70.7092 84.847 65.9306V59.7535C84.847 64.5087 81.0009 68.3782 76.2224 68.3782Z" fill="#D9E9F3"/>
</g>
<path d="M63.4952 84.1822H61.8868C58.2038 84.1822 55.2202 81.1986 55.2202 77.5156V74.5553C55.2202 73.9492 54.7307 73.4597 54.1246 73.4597H36.8754C36.2693 73.4597 35.7798 73.9492 35.7798 74.5553V77.5156C35.7798 81.1986 32.7961 84.1822 29.1132 84.1822H27.5048C26.8988 84.1822 26.4092 84.6717 26.4092 85.2778C26.4092 85.8838 26.8988 86.3733 27.5048 86.3733H63.5418C64.1479 86.3733 64.6374 85.8838 64.6374 85.2778C64.6374 84.6717 64.1479 84.1822 63.5418 84.1822H63.4952ZM34.9173 84.1822C36.7821 82.5505 37.9476 80.1729 37.9476 77.5156V75.6508H53.0291V77.5156C53.0291 80.1729 54.1946 82.5505 56.0593 84.1822H34.9173Z" fill="#133960"/>
<path d="M56.0593 84.1823H34.9173C36.7821 82.5506 37.9476 80.173 37.9476 77.5156V75.6508H53.0291V77.5156C53.0291 80.173 54.1945 82.5506 56.0593 84.1823Z" fill="white"/>
</svg>
